<svg height="512pt" viewBox="0 -10 512.16387 512" width="512pt" xmlns="http://www.w3.org/2000/svg"><path d="m443.898438 431.035156c-11.351563 19.628906-36.523438 52.480469-72.449219 52.480469-4.664063.023437-9.320313-.375-13.910157-1.195313-24.660156-4.351562-37.714843-20.480468-82.601562-36.609374-52.652344-18.855469-52.652344 0-149.164062-28.242188-65.535157-19.203125-90.621094-73.300781-100.007813-105.984375l83.199219-40.621094c1.449218-.082031 2.816406-.253906 4.179687-.253906 88.320313-5.460937 118.015625 44.542969 166.144531 90.792969 9.472657 9.21875 19.542969 11.4375 30.976563 19.714844.53125.472656 1.101563.898437 1.707031 1.277343 8.839844 6.425781 18.105469 12.242188 27.734375 17.410157v.085937c8.925781 4.8125 18.230469 8.894531 27.816407 12.199219 10.007812 3.441406 20.324218 5.898437 30.804687 7.339844v.085937c1.535156.171875 2.988281.425781 4.4375.597656 10.328125 1.109375 18.773437 1.195313 25.34375 1.875 7.851563.769531 13.058594 2.390625 15.53125 7.683594.183594.429687.269531.894531.257813 1.363281zm0 0" fill="#a4c2f7"/><path d="m418.296875 431.035156c-10.070313 17.410156-31.0625 45.226563-60.757813 51.285156-24.660156-4.351562-37.714843-20.480468-82.601562-36.609374-52.652344-18.855469-52.652344 0-149.164062-28.242188-65.535157-19.203125-90.621094-73.300781-100.007813-105.984375l83.199219-40.621094c1.449218-.082031 2.816406-.253906 4.179687-.253906 69.035157 4.863281 97.367188 49.320313 140.542969 90.792969 9.472656 9.21875 19.542969 11.4375 30.976562 19.714844.53125.472656 1.105469.898437 1.707032 1.277343 8.839844 6.425781 18.105468 12.242188 27.734375 17.410157v.085937c8.925781 4.8125 18.230469 8.894531 27.820312 12.199219 10.003907 3.441406 20.320313 5.898437 30.804688 7.339844v.085937c12.371093 1.707031 22.269531 1.707031 29.78125 2.472656 7.847656.769531 13.054687 2.390625 15.53125 7.683594.179687.429687.269531.894531.253906 1.363281zm0 0" fill="#cad9fc"/><path d="m503.628906 193.382812c0 16.640626-48.722656 65.707032-130.21875 60.160157-2.109375-.019531-4.21875-.160157-6.3125-.425781-15.820312-1.597657-31.726562-2.109376-47.617187-1.539063-38.65625 1.539063-63.742188 9.472656-97.277344 7.085937-11.578125-.820312-23.058594-2.675781-34.304687-5.546874-11.082032-3.257813-22.773438-3.875-34.132813-1.792969-34.304687 7.679687-41.644531 48.042969-102.402344 61.523437-10.214843 3.117188-21.066406 3.527344-31.488281 1.195313h-.085938c-26.109374-9.558594 11.007813-59.050781 31.574219-86.527344 25.601563-34.132813-8.53125-42.667969-8.53125-42.667969-5.160156 2.480469-10.753906 3.929688-16.472656 4.269532-4.03125.285156-8.03125-.898438-11.261719-3.328126-4.804687-4.691406-7.167968-11.339843-6.402344-18.007812 0-34.132812 17.070313-68.265625 42.667969-76.800781 25.601563-8.53125 42.667969-59.730469 68.265625-76.796875 1.59375-1.132813 3.3125-2.078125 5.121094-2.816406 23.039062-10.753907 42.753906 13.054687 114.347656 36.949218 16.234375 5.476563 33.148438 8.691406 50.261719 9.554688 32 1.792968 60.5-4.09375 90.027344-5.628906 18.785156-1.328126 37.660156.226562 55.976562 4.605468 68.265625 17.066406 68.265625 110.933594 68.265625 136.535156zm0 0" fill="#cad9fc"/><path d="m478.03125 193.382812c0 14.847657-38.570312 55.378907-104.621094 60.160157-10.628906.789062-21.308594.644531-31.914062-.425781-7.765625-.769532-15.101563-1.28125-22.015625-1.539063-42.238281-1.621094-68.691407 5.292969-97.277344 7.085937-20.140625 1.421876-40.371094-.453124-59.90625-5.546874-2.988281-.769532-5.886719-1.367188-8.53125-1.792969-59.136719-10.070313-54.613281 45.226562-128 61.523437-2.050781.429688-4.011719.855469-5.890625 1.195313h-.085938c-26.109374-9.558594 11.007813-59.050781 31.574219-86.527344 25.601563-34.132813-8.53125-42.667969-8.53125-42.667969-5.160156 2.480469-10.753906 3.929688-16.472656 4.269532-2.78125-1.925782-5.867187-3.367188-9.128906-4.269532-.6875.363282-1.402344.675782-2.132813.941406-4.804687-4.691406-7.167968-11.339843-6.402344-18.007812 0-34.132812 17.070313-68.265625 42.667969-76.800781 25.601563-8.53125 42.667969-59.730469 68.265625-76.796875 1.59375-1.132813 3.3125-2.078125 5.121094-2.816406 17.835938 6.058593 42.410156 21.503906 88.746094 36.949218 24.4375 8.042969 50.195312 11.289063 75.863281 9.554688 30.804687-1.535156 59.21875-7.59375 90.027344-5.628906 10.25.539062 20.425781 2.082031 30.378906 4.605468 68.265625 17.066406 68.265625 110.933594 68.265625 136.535156zm0 0" fill="#e8edfc"/><path d="m392.695312 125.117188c17.070313 0 42.667969 42.664062 8.535157 42.664062-34.132813 0-25.601563-42.664062-8.535157-42.664062zm0 0" fill="#a4c2f7"/><path d="m264.695312 99.515625c35.1875 0 76.800782 25.601563 76.800782 68.265625 0 0-25.597656-8.53125-34.132813 8.535156-8.53125 17.066406-42.667969 8.53125-42.667969-25.601562 0-34.132813-17.066406-51.199219 0-51.199219zm0 0" fill="#a4c2f7"/><path d="m170.832031 82.449219c-17.066406 0-34.136719 42.667969 8.53125 51.199219 42.667969 8.535156-8.53125 25.601562 8.535157 42.667968 17.066406 17.066406 34.132812 25.597656 42.664062 17.066406 8.535156-8.535156-17.066406-34.132812-8.53125-51.199218 8.53125-17.066406 0-59.734375-51.199219-59.734375zm0 0" fill="#a4c2f7"/><path d="m76.964844 133.648438c-12.070313 0 17.066406-51.199219 34.132812-42.667969 17.066406 8.535156 8.53125 59.734375 17.066406 85.335937 8.53125 25.597656-17.066406 42.664063-25.601562 42.664063-8.53125 0 0-34.132813 0-42.664063 0-8.535156-8.53125-42.667968-25.597656-42.667968zm0 0" fill="#a4c2f7"/><path d="m19.789062 314.042969h.085938c2.296875.710937 4.667969 1.140625 7.066406 1.28125 10.203125 32.921875 35.765625 83.667969 98.832032 102.144531 96.511718 28.242188 96.511718 9.386719 149.164062 28.242188 44.886719 16.128906 57.941406 32.257812 82.601562 36.609374 4.589844.820313 9.246094 1.21875 13.910157 1.195313 3.894531-.019531 7.773437-.425781 11.585937-1.21875-24.589844-4.378906-37.675781-20.476563-82.496094-36.585937-52.652343-18.855469-52.652343 0-149.164062-28.242188-63.066406-18.476562-88.628906-69.222656-98.835938-102.144531-2.398437-.140625-4.769531-.570313-7.0625-1.28125h-.085937c-26.113281-9.558594 11.007813-59.050781 31.574219-86.527344 25.597656-34.132813-8.535156-42.667969-8.535156-42.667969-5.160157 2.480469-10.753907 3.929688-16.46875 4.269532h-.046876c7.878907 5.398437 15.699219 16.722656-.550781 38.398437-20.566406 27.476563-57.683593 76.96875-31.574219 86.527344zm0 0" fill="#fff"/><path d="m222.203125 258.664062c2.292969.160157 4.464844.167969 6.683594.242188-13.832031-.433594-27.578125-2.375-40.988281-5.789062-2.988282-.769532-5.890626-1.367188-8.535157-1.792969-3.316406.769531-6.539062 1.890625-9.613281 3.347656 17.203125 3.824219 34.867188 5.167969 52.453125 3.992187zm0 0" fill="#fff"/><path d="m237.023438 259.035156c3.519531-.042968 7-.148437 10.421874-.359375-3.414062.222657-6.90625.308594-10.421874.359375zm0 0" fill="#fff"/><path d="m332.429688 252.347656c2.972656.226563 5.960937.460938 9.066406.769532 10.605468 1.070312 21.285156 1.214843 31.914062.425781.925782.0625 1.785156.027343 2.699219.074219-2.996094-.152344-5.925781-.199219-9.011719-.5-7.765625-.769532-15.105468-1.28125-22.015625-1.539063-4.398437.175781-8.574219.453125-12.652343.769531zm0 0" fill="#fff"/><path d="m386.9375 253.925781c1.847656-.011719 3.621094-.109375 5.429688-.171875-1.804688.066406-3.585938.15625-5.429688.171875zm0 0" fill="#fff"/><path d="m314.957031 57.871094c22.222657-1.109375 43.210938-4.53125 64.738281-5.640625l-.308593.011719c-25.476563-.40625-50.941407 1.144531-76.175781 4.644531 3.972656.453125 7.886718.78125 11.746093.984375zm0 0" fill="#fff"/><path d="m26.359375 189.117188c4.941406-.25 9.800781-1.378907 14.34375-3.328126h-.007813c-4.800781-4.691406-7.164062-11.339843-6.398437-18.007812 0-34.132812 17.066406-68.265625 42.667969-76.800781 25.597656-8.53125 42.664062-59.730469 68.265625-76.796875 1.570312-1.113282 3.261719-2.042969 5.042969-2.773438-8.136719-3.546875-17.375-3.5625-25.523438-.042968-1.808594.738281-3.527344 1.683593-5.121094 2.816406-25.597656 17.066406-42.664062 68.265625-68.265625 76.796875-25.597656 8.535156-42.667969 42.667969-42.667969 76.800781-.765624 6.667969 1.597657 13.316406 6.402344 18.007812 3.230469 2.429688 7.230469 3.613282 11.261719 3.328126zm0 0" fill="#fff"/><path d="m31.164062 324.082031c-9.75 1.027344-19.347656-3-25.441406-10.679687-12.574218-19.488282 11.1875-54.164063 38.816406-91.007813 6.367188-8.496093 8.964844-15.8125 7.304688-20.59375-1.746094-3.644531-4.867188-6.445312-8.675781-7.785156-9.875 4.667969-21.316407 4.675781-31.191407.019531-8.398437-5.972656-12.914062-16.011718-11.8125-26.253906 0-39.824219 20.394532-75.527344 48.5-84.894531 11.078126-3.691407 21.910157-20.03125 32.382813-35.828125 8.691406-15.320313 20.171875-28.878906 33.851563-39.976563 19.976562-13.324219 36.140624-5.71875 62.898437 6.902344 20.75 10.105469 42.125 18.871094 64 26.234375 39.773437 13.257812 73.078125 9.710938 105.300781 6.28125 28.292969-3.011719 57.53125-6.121094 90.339844 2.070312 49.585938 12.394532 74.726562 61.121094 74.726562 144.8125 0 8.820313-7.113281 20.320313-19.515624 31.546876-11.507813 10.417968-54.628907 43.84375-126.40625 36.675781-29.519532-2.867188-59.28125-2.035157-88.59375 2.480469-30.460938 5.523437-61.738282 4.605468-91.824219-2.691407-32.832031-8.226562-44.308594 2.746094-61.710938 19.320313-18.976562 20.371094-43.707031 34.484375-70.898437 40.460937-7.226563 1.761719-14.617188 2.734375-22.050782 2.90625zm11.683594-147.761719c.691406 0 1.382813.082032 2.054688.25 10.28125 2.546876 18.789062 9.742188 23.007812 19.460938 3.777344 10.652344.511719 22.964844-9.722656 36.609375-11.203125 14.933594-45.292969 60.398437-38.125 71.507813.398438.621093 4.609375 5.882812 29.453125.371093 24.148437-5.339843 46.078125-17.960937 62.828125-36.160156 18.359375-17.484375 35.6875-34 77.625-23.523437 28.027344 6.785156 57.171875 7.574218 85.527344 2.320312 30.59375-4.703125 61.652344-5.554688 92.453125-2.53125 64.722656 6.453125 103.050781-23.125 113.246093-32.351562 6.410157-4.777344 11.246094-11.351563 13.902344-18.890626 0-74.851562-20.792968-118.003906-61.804687-128.257812-29.871094-7.46875-56.351563-4.648438-84.386719-1.65625-34.035156 3.625-69.207031 7.371094-112.507812-7.058594-22.511719-7.589844-44.515626-16.605468-65.878907-26.992187-26.539062-12.511719-34.710937-15.78125-46.15625-8.136719-11.6875 9.9375-21.535156 21.855469-29.09375 35.203125-12.628906 19.050781-24.554687 37.042969-41.207031 42.589844-21 7.003906-36.832031 36.539062-36.832031 68.707031 0 3.515625.480469 9.71875 3.703125 11.722656 6.105468 1.640625 12.609375.816406 18.105468-2.304687 1.1875-.582031 2.488282-.882813 3.808594-.878907zm0 0" fill="#428dff"/><path d="m35.976562 313.660156c6.992188 34.503906 27.164063 64.917969 56.226563 84.785156 11.796875 7.597657 24.679687 13.363282 38.203125 17.105469l-4.484375 16.46875c-15.257813-4.214843-29.789063-10.722656-43.089844-19.304687-32.785156-22.3125-55.574219-56.535156-63.523437-95.386719zm0 0" fill="#fff"/><g fill="#428dff"><path d="m42.304688 355.429688c4.078124-2.101563 5.816406-7.019532 3.964843-11.214844-4.476562-9.800782-7.925781-20.039063-10.292969-30.550782l-16.667968 3.667969c2.628906 11.710938 6.46875 23.113281 11.457031 34.027344.949219 2.105469 2.71875 3.734375 4.898437 4.503906 2.179688.769531 4.578126.613281 6.640626-.433593zm0 0"/><path d="m125.921875 432.015625 4.484375-16.46875c-13.523438-3.742187-26.40625-9.507813-38.203125-17.105469-2.167969-1.535156-4.539063-2.792968-6.550781-4.539062-3.71875-2.664063-8.859375-2.019532-11.804688 1.480468-1.476562 1.785157-2.152344 4.101563-1.867187 6.402344.289062 2.296875 1.515625 4.375 3.390625 5.738282 2.3125 1.976562 4.984375 3.445312 7.460937 5.183593 13.300781 8.582031 27.832031 15.09375 43.089844 19.308594zm0 0"/><path d="m62.972656 371.578125c-1.367187-1.683594-3.324218-2.78125-5.472656-3.066406l-1.613281-.0625c-.566407.011719-1.128907.097656-1.671875.253906-.53125.078125-1.050782.234375-1.535156.460937-.519532.242188-1.015626.519532-1.496094.828126-1.871094 1.316406-3.140625 3.320312-3.535156 5.574218-.109376 1.144532.007812 2.304688.347656 3.40625.945312 3.492188 3.914062 6.066406 7.507812 6.507813 1.140625.070312 2.28125-.089844 3.355469-.46875 1.066406-.34375 2.046875-.902344 2.890625-1.640625 1.636719-1.519532 2.683594-3.570313 2.941406-5.792969.113282-2.136719-.492187-4.246094-1.71875-6zm0 0"/><path d="m367.097656 492.050781c-17.949218-.261719-35.488281-5.382812-50.753906-14.828125-14.699219-7.839844-30.019531-14.445312-45.8125-19.746094-15.9375-5.558593-32.652344-8.566406-49.53125-8.90625-32.25-1.621093-64.179688-7.179687-95.082031-16.554687-4.546875-1.242187-7.230469-5.933594-5.988281-10.480469 1.238281-4.546875 5.933593-7.230468 10.480468-5.988281 29.742188 9.039063 60.480469 14.40625 91.527344 15.980469 18.398438.414062 36.617188 3.703125 53.992188 9.757812 16.617187 5.5625 32.738281 12.503906 48.199218 20.746094 12.847656 8.210938 27.722656 12.695312 42.96875 12.949219 41.449219 0 65.929688-37.582031 68.402344-48.070313-2.375-.957031-4.902344-1.480468-7.464844-1.539062-2.59375-.246094-5.449218-.398438-8.613281-.5625-5.652344-.300782-12.691406-.683594-20.636719-1.6875-.414062-.054688-.824218-.136719-1.226562-.25-10.257813-1.382813-20.375-3.667969-30.230469-6.828125-9.683594-3.121094-19.117187-6.957031-28.226563-11.484375-.359374-.175782-.710937-.378906-1.042968-.601563-9.277344-4.691406-18.261719-9.949219-26.894532-15.742187-.960937-.644532-1.550781-1.046875-2.019531-1.410156-10.804687-7.390626-21.070312-15.535157-30.722656-24.375-7.816406-6.96875-15.164063-14.070313-22.269531-20.9375-35.558594-34.332032-66.253906-64-136.988282-58.707032-4.65625.277344-8.675781-3.230468-9.023437-7.882812s3.101563-8.71875 7.75-9.136719c78.339844-5.867187 113.210937 27.808594 150.121094 63.449219 6.984375 6.75 14.214843 13.734375 21.828125 20.527344 9.152344 8.382812 18.886718 16.105468 29.136718 23.105468.242188.164063.472657.339844.695313.527344.085937.058594 1.101563.730469 1.183594.789062 8.273437 5.542969 16.886719 10.550782 25.796875 15 .332031.164063.65625.351563.964844.5625 8.039062 3.941407 16.351562 7.300782 24.875 10.042969 9.273437 2.976563 18.796874 5.09375 28.453124 6.324219.398438.054688.789063.132812 1.171876.234375 6.839843.824219 12.863281 1.148437 18.21875 1.433594 3.421874.183593 6.507812.351562 9.261718.609375 8.851563-.308594 17.203125 4.105468 21.9375 11.59375 3.597656 7.117187-1.515625 18.175781-6.445312 26.199218-16.433594 27.632813-45.855469 44.941407-77.992188 45.886719zm0 0"/><path d="m469.488281 159.25c-3.910156-.007812-7.320312-2.667969-8.269531-6.464844-3.84375-17.417968-11.871094-33.636718-23.382812-47.261718-3.238282-3.351563-3.1875-8.6875.117187-11.976563s8.636719-3.316406 11.976563-.0625c13.777343 15.746094 23.355468 34.722656 27.84375 55.160156.640624 2.550781.066406 5.253907-1.554688 7.324219-1.617188 2.074219-4.101562 3.28125-6.730469 3.28125zm0 0"/><path d="m401.230469 176.316406c-8.328125.769532-16.585938-2.050781-22.699219-7.757812-6.113281-5.703125-9.496094-13.75-9.300781-22.109375 0-14.363281 8.972656-29.867188 23.464843-29.867188 16.8125 0 33.894532 22.464844 33.894532 38.617188.179687 5.917969-2.328125 11.601562-6.828125 15.453125-5.300781 4.039062-11.875 6.050781-18.53125 5.664062zm-8.535157-42.667968c-2.472656 0-6.398437 5.859374-6.398437 12.800781 0 5.835937 2.59375 12.800781 14.933594 12.800781 2.609375.304688 5.25-.265625 7.5-1.621094.238281-.203125.792969-.671875.792969-2.429687-1.378907-9.664063-7.785157-17.867188-16.828126-21.550781zm0 0"/><path d="m292.46875 193.382812c-2.402344-.003906-4.792969-.289062-7.128906-.847656-18.386719-5.292968-30.558594-22.734375-29.175782-41.820312-.191406-10.820313-1.871093-21.5625-4.992187-31.925782-2.457031-9.175781-4.398437-16.421874.15625-22.355468 3.363281-3.800782 8.304687-5.816406 13.367187-5.453125 41.210938 0 85.335938 30.859375 85.335938 76.800781-.003906 2.742188-1.320312 5.320312-3.546875 6.921875-2.226563 1.605469-5.085937 2.039063-7.6875 1.175781-.152344-.054687-18.78125-5.789062-23.800781 4.253906-4.335938 8.378907-13.09375 13.53125-22.527344 13.25zm-26.40625-85.316406c.40625 1.875 1.042969 4.242188 1.597656 6.308594 3.53125 11.796875 5.40625 24.027344 5.570313 36.339844 0 15.8125 8.632812 23.46875 16.027343 25.210937 3.863282 1.421875 8.199219.003907 10.472657-3.425781 6.386719-11.4375 19.316406-17.574219 32.210937-15.292969-6.273437-31.578125-40.121094-48.5625-65.878906-49.140625zm0 0"/><path d="m222.128906 205.382812c-11.144531 0-25.070312-7.832031-40.265625-23.035156-12.726562-12.726562-2.457031-26.347656 2.476563-32.898437 1.011718-1.34375 2.382812-3.164063 3.226562-4.535157-3.160156-1.363281-6.480468-2.339843-9.878906-2.898437-26.929688-5.386719-34.941406-23.28125-33.460938-38.230469 1.601563-16.191406 13.785157-29.871094 26.605469-29.871094 33.296875 0 48.554688 16.640626 54.683594 26.558594 8.722656 13.59375 10.269531 30.582032 4.148437 45.527344-2.746093 5.492188 1.515626 15.019531 5.277344 23.414062 4.59375 10.25 9.792969 21.863282 1.65625 30-3.796875 3.894532-9.03125 6.050782-14.46875 5.96875zm-51.296875-114.402343c-2.875 0-8.78125 5.976562-9.621093 14.488281-.992188 10.023438 6.046874 17.054688 19.828124 19.8125 9.753907 1.949219 20.167969 5.09375 23.410157 13.601562 1.699219 7.605469-.769531 15.542969-6.480469 20.839844-6.277344 8.324219-5.570312 9.023438-4.039062 10.558594 6.265624 6.695312 13.667968 12.222656 21.863281 16.328125 2.441406 1.28125 5.238281 1.726563 7.957031 1.261719-1.09375-3.957032-2.5625-7.800782-4.382812-11.480469-5.050782-11.269531-11.328126-25.304687-4.96875-38.023437 3.476562-9.640626 2.21875-20.355469-3.402344-28.921876-5.203125-8.421874-16.398438-18.464843-40.164063-18.464843zm0 0"/><path d="m102.5625 227.515625c-3.292969.015625-6.421875-1.425781-8.550781-3.941406-5.476563-6.378907-4.160157-18.089844-1.335938-36.625.632813-4.164063 1.355469-8.882813 1.355469-10.632813 0-8.789062-8.679688-34.132812-17.066406-34.132812-4.648438.085937-8.851563-2.761719-10.496094-7.109375-4.734375-12.246094 11.339844-35.53125 21.285156-44.574219 12.792969-11.625 22.515625-9.472656 27.160156-7.152344 14.734376 7.371094 15.835938 30.070313 17.003907 54.101563.007812 12.183593 1.464843 24.324219 4.339843 36.164062 4.210938 12.222657 2.117188 25.730469-5.589843 36.109375-6.433594 9.632813-16.640625 16.097656-28.105469 17.792969zm-18.964844-101.363281c20.1875 6.53125 27.5 41.972656 27.5 50.164062-.234375 4.429688-.753906 8.839844-1.550781 13.203125-.726563 4.761719-2.011719 13.210938-2.246094 18.910157 4.078125-2.433594 7.566407-5.742188 10.210938-9.6875 3.972656-5.78125 4.925781-13.121094 2.558593-19.726563-3.4375-13.304687-5.183593-26.992187-5.195312-40.734375-.714844-14.640625-1.789062-36.765625-7.59375-39.664062-.359375-.179688-1.820312.027343-4.097656 1.449218-8.765625 6.769532-15.53125 15.78125-19.585938 26.085938zm0 0"/><path d="m486.554688 261.648438c-2.957032-.003907-5.699219-1.535157-7.253907-4.050782-1.550781-2.515625-1.691406-5.65625-.371093-8.300781 4.960937-12.359375 7.550781-25.539063 7.632812-38.855469.007812-4.707031 3.828125-8.523437 8.535156-8.523437h.007813c4.707031.007812 8.523437 3.824219 8.523437 8.53125-.070312 15.960937-3.273437 31.753906-9.433594 46.484375-1.445312 2.890625-4.40625 4.71875-7.640624 4.714844zm0 0"/><path d="m452.421875 278.714844c-2.953125-.003906-5.691406-1.53125-7.246094-4.039063-1.554687-2.511719-1.699219-5.644531-.386719-8.289062 5.605469-11.90625 10.566407-24.105469 14.855469-36.546875 1.542969-4.453125 6.402344-6.8125 10.859375-5.265625 4.453125 1.542969 6.8125 6.402343 5.265625 10.859375-4.527343 13.121094-9.765625 25.992187-15.695312 38.542968-1.441407 2.90625-4.40625 4.746094-7.652344 4.738282zm0 0"/><path d="m418.289062 287.25c-2.957031-.003906-5.699218-1.535156-7.253906-4.050781-1.554687-2.515625-1.691406-5.65625-.371094-8.300781 4.644532-9.695313 8.789063-19.625 12.417969-29.746094 1.617188-4.425782 6.515625-6.703125 10.945313-5.085938 4.425781 1.617188 6.703125 6.515625 5.085937 10.945313-3.851562 10.726562-8.253906 21.246093-13.183593 31.519531-1.445313 2.894531-4.40625 4.722656-7.640626 4.71875zm0 0"/><path d="m384.15625 287.25c-2.964844-.003906-5.714844-1.542969-7.265625-4.066406-1.550781-2.527344-1.679687-5.675782-.34375-8.316406 3.667969-7.261719 7.277344-16.28125 10.324219-24.152344 1.722656-4.363282 6.644531-6.515625 11.019531-4.824219s6.5625 6.597656 4.898437 10.984375c-3.195312 8.257812-7.003906 17.769531-11.007812 25.683594-1.453125 2.878906-4.402344 4.691406-7.625 4.691406zm0 0"/><path d="m350.023438 287.25c-2.957032-.003906-5.703126-1.535156-7.253907-4.050781-1.554687-2.515625-1.695312-5.65625-.371093-8.300781 3.140624-6.273438 6.6875-14.570313 10.847656-25.367188 1.699218-4.394531 6.636718-6.585938 11.035156-4.890625 4.398438 1.699219 6.585938 6.636719 4.890625 11.035156-4.363281 11.308594-8.125 20.09375-11.507813 26.859375-1.449218 2.890625-4.40625 4.71875-7.640624 4.714844zm0 0"/><path d="m324.421875 278.714844c-2.964844-.003906-5.714844-1.542969-7.265625-4.074219-1.550781-2.527344-1.675781-5.675781-.335938-8.320313 2.914063-5.738281 5.789063-12.726562 7.96875-18.167968 1.089844-2.890625 3.65625-4.964844 6.710938-5.425782 3.054688-.457031 6.121094.769532 8.015625 3.210938 1.894531 2.4375 2.320313 5.710938 1.113281 8.558594-2.308594 5.769531-5.375 13.207031-8.589844 19.546875-1.457031 2.871093-4.402343 4.675781-7.617187 4.671875zm0 0"/><path d="m290.289062 278.714844c-2.964843 0-5.71875-1.542969-7.269531-4.074219-1.550781-2.527344-1.675781-5.679687-.332031-8.324219 2.144531-4.210937 4.460938-9.421875 7.300781-16.414062 1.113281-2.875 3.6875-4.929688 6.742188-5.371094 3.050781-.441406 6.105469.800781 7.984375 3.246094 1.878906 2.445312 2.292968 5.714844 1.082031 8.550781-3.019531 7.445313-5.53125 13.074219-7.890625 17.71875-1.457031 2.867187-4.402344 4.671875-7.617188 4.667969zm0 0"/><path d="m428.804688 425.402344c-.300782 0-.605469-.015625-.90625-.042969-2.253907-.238281-4.320313-1.359375-5.742188-3.121094-1.425781-1.761719-2.09375-4.015625-1.855469-6.265625 1.5625-14.808594 1.917969-29.53125 1.921875-29.679687-.011718-2.285157.917969-4.46875 2.570313-6.046875 1.648437-1.574219 3.875-2.402344 6.15625-2.285156 4.707031.105468 8.4375 4.011718 8.332031 8.722656-.011719.625-.367188 15.550781-2.003906 31.078125-.457032 4.339843-4.109375 7.632812-8.472656 7.640625zm0 0"/><path d="m399.875 423.183594c-2.480469.003906-4.84375-1.074219-6.46875-2.953125-1.625-1.878907-2.347656-4.371094-1.984375-6.828125 1.765625-13.617188 2.847656-27.3125 3.242187-41.039063-.003906-2.28125.929688-4.464843 2.585938-6.039062 1.652344-1.570313 3.882812-2.394531 6.160156-2.273438 4.710938.121094 8.433594 4.035157 8.3125 8.746094-.394531 14.417969-1.535156 28.804687-3.414062 43.105469-.617188 4.179687-4.207032 7.277344-8.433594 7.28125zm0 0"/><path d="m369.917969 416.449219c-2.710938-.003907-5.257813-1.289063-6.867188-3.472657-1.605469-2.179687-2.085937-4.992187-1.292969-7.582031 3.527344-14.574219 5.320313-29.511719 5.339844-44.503906 0-4.710937 3.820313-8.53125 8.53125-8.53125 4.714844 0 8.535156 3.820313 8.535156 8.53125-.003906 16.699219-2.050781 33.335937-6.097656 49.539063-1.101562 3.574218-4.40625 6.015624-8.148437 6.019531zm0 0"/><path d="m342.875 405.4375c-.339844-.003906-.683594-.023438-1.023438-.058594-2.246093-.269531-4.296874-1.417968-5.695312-3.199218-1.402344-1.78125-2.035156-4.042969-1.765625-6.289063 1.976563-16.570313 2.5-35.046875 2.503906-35.234375.003907-2.28125.941407-4.460938 2.597657-6.03125 1.65625-1.566406 3.886718-2.386719 6.164062-2.265625 4.710938.128906 8.425781 4.054687 8.296875 8.761719-.023437.785156-.546875 19.449218-2.613281 36.792968-.515625 4.285157-4.148438 7.515626-8.464844 7.523438zm0 0"/><path d="m314.199219 388.453125c-.273438 0-.542969-.011719-.820313-.035156-4.6875-.449219-8.128906-4.613281-7.6875-9.300781 1.324219-13.851563 1.671875-26.847657 1.675782-26.976563.019531-2.273437.964843-4.445313 2.613281-6.011719 1.648437-1.566406 3.863281-2.394531 6.136719-2.296875 2.261718.054688 4.410156 1.007813 5.96875 2.648438 1.5625 1.640625 2.402343 3.835937 2.34375 6.097656-.011719.550781-.363282 13.691406-1.742188 28.148437-.414062 4.378907-4.089844 7.726563-8.488281 7.726563zm0 0"/><path d="m284.160156 364.644531c-.246094 0-.492187-.007812-.746094-.03125-4.695312-.40625-8.171874-4.542969-7.765624-9.238281 1.160156-13.410156 1.503906-25.570312 1.507812-25.695312-.035156-2.292969.890625-4.5 2.558594-6.074219 1.667968-1.578125 3.921875-2.382813 6.210937-2.21875 4.707031.132812 8.421875 4.058593 8.289063 8.769531-.011719.511719-.363282 12.78125-1.566406 26.695312-.382813 4.40625-4.066407 7.789063-8.488282 7.792969zm0 0"/><path d="m256.164062 381.121094c-1.085937-.003906-2.160156-.210938-3.167968-.613282-15.207032-6.261718-31.1875-10.46875-47.507813-12.503906-18.511719-2.550781-36.738281-6.878906-54.421875-12.925781-27.542968-10.292969-52.132812-27.207031-71.59375-49.25-3.191406-3.46875-2.964844-8.867187.5-12.058594 3.46875-3.191406 8.867188-2.96875 12.058594.5 17.507812 19.917969 39.632812 35.242188 64.4375 44.621094 16.765625 5.746094 34.046875 9.847656 51.605469 12.246094 17.609375 2.230469 34.84375 6.777343 51.261719 13.519531 3.808593 1.515625 6 5.523438 5.226562 9.546875-.777344 4.023437-4.300781 6.925781-8.398438 6.917969zm0 0"/></g></svg>